<svg width="16" height="16" viewBox="0 0 16 16" fill="none" xmlns="http://www.w3.org/2000/svg">
<path d="M14.9702 8.0271C14.9697 7.60139 14.8004 7.19325 14.4994 6.89223C14.1984 6.59121 13.7902 6.4219 13.3645 6.42145C12.9747 6.42099 12.5982 6.56346 12.3063 6.82188C11.2444 6.14237 9.82758 5.71429 8.26483 5.66802L9.22116 2.39747L11.569 2.83373C11.569 2.85292 11.565 2.87098 11.5661 2.89017C11.5801 3.1588 11.7001 3.41091 11.8998 3.5912C12.0994 3.77149 12.3624 3.86523 12.6311 3.85186C12.8997 3.83777 13.1517 3.71775 13.332 3.51811C13.5122 3.31847 13.6059 3.05551 13.5925 2.78689C13.5785 2.51825 13.4585 2.26614 13.2589 2.08585C13.0592 1.90557 12.7962 1.81183 12.5275 1.82519C12.3564 1.8343 12.1904 1.88672 12.045 1.97754C11.8997 2.06835 11.7797 2.19459 11.6965 2.34442L11.6957 2.34413L8.86645 1.81842L7.73968 5.66745C6.17298 5.70893 4.7516 6.13475 3.68522 6.81285C3.39458 6.55994 3.02216 6.4209 2.63689 6.42145C2.21121 6.42198 1.80311 6.59131 1.50211 6.89231C1.20111 7.19332 1.03177 7.60141 1.03125 8.0271C1.03125 8.57454 1.31315 9.07966 1.76973 9.37426C1.7412 9.53543 1.72656 9.69876 1.72599 9.86244C1.72599 12.1798 4.53545 14.0653 7.98885 14.0653C11.4423 14.0653 14.2511 12.1798 14.2511 9.86216C14.2511 9.70188 14.2365 9.54385 14.2102 9.38809C14.442 9.24441 14.6334 9.04406 14.7663 8.80595C14.8992 8.56783 14.9695 8.29979 14.9702 8.0271ZM5.01234 9.11973C5.01238 8.99015 5.03794 8.86186 5.08756 8.74217C5.13718 8.62247 5.20988 8.51372 5.30153 8.42213C5.39318 8.33054 5.50197 8.25789 5.62169 8.20834C5.74141 8.15879 5.86972 8.1333 5.99929 8.13334C6.12886 8.13338 6.25716 8.15894 6.37685 8.20855C6.49655 8.25817 6.60529 8.33088 6.69689 8.42253C6.78848 8.51418 6.86113 8.62297 6.91068 8.74269C6.96023 8.86241 6.98571 8.99072 6.98568 9.12029C6.9856 9.38197 6.88158 9.6329 6.69649 9.81789C6.5114 10.0029 6.26041 10.1067 5.99873 10.1067C5.73705 10.1066 5.48611 10.0026 5.30113 9.81749C5.11615 9.6324 5.01227 9.38141 5.01234 9.11973ZM10.3146 11.7887C10.2853 11.8191 9.57728 12.5395 7.97728 12.5395C6.36882 12.5395 5.72543 11.8092 5.69919 11.7782C5.6585 11.7272 5.63913 11.6625 5.64514 11.5976C5.65115 11.5326 5.68208 11.4726 5.73142 11.4299C5.78077 11.3873 5.84471 11.3654 5.90983 11.3689C5.97495 11.3724 6.03619 11.401 6.0807 11.4486C6.09538 11.4644 6.6321 12.0353 7.977 12.0353C9.34561 12.0353 9.94554 11.4441 9.95174 11.4385C9.99915 11.3951 10.0613 11.3715 10.1255 11.3723C10.1897 11.3732 10.2512 11.3985 10.2975 11.4431C10.3437 11.4876 10.3712 11.5482 10.3744 11.6123C10.3776 11.6765 10.3562 11.7397 10.3146 11.7887ZM10.1185 10.1065C9.98896 10.1066 9.86067 10.0811 9.74096 10.0316C9.62125 9.98207 9.51246 9.90945 9.42081 9.81789C9.32917 9.72632 9.25645 9.6176 9.20682 9.49793C9.1572 9.37826 9.13162 9.24998 9.13157 9.12043C9.13151 8.99088 9.15697 8.86258 9.2065 8.74287C9.25603 8.62316 9.32865 8.51437 9.42021 8.42273C9.51178 8.33108 9.62051 8.25837 9.74017 8.20874C9.85984 8.15911 9.98812 8.13354 10.1177 8.13348C10.3793 8.13337 10.6303 8.2372 10.8154 8.42213C11.0005 8.60706 11.1045 8.85794 11.1046 9.11959C11.1047 9.38123 11.0009 9.6322 10.816 9.81729C10.631 10.0024 10.3802 10.1064 10.1185 10.1065Z" fill="black"/>
</svg>
