<svg width="16" height="16" viewBox="0 0 16 16" fill="none" xmlns="http://www.w3.org/2000/svg">
<path d="M14.9109 4.2517C14.3904 4.48271 13.8381 4.63408 13.2726 4.70071C13.8685 4.34448 14.3143 3.78348 14.5268 3.12253C13.9669 3.45497 13.3543 3.68921 12.7155 3.8151C12.4487 3.53034 12.1262 3.30344 11.7681 3.14848C11.4099 2.99351 11.0238 2.91379 10.6336 2.91425C9.05847 2.91425 7.78142 4.1913 7.78142 5.76666C7.78142 5.9899 7.80654 6.20749 7.85536 6.41662C5.4847 6.29752 3.38271 5.16214 1.97583 3.43636C1.72209 3.87169 1.58883 4.36673 1.58975 4.87061C1.58975 5.86008 2.09324 6.73327 2.85862 7.24466C2.40566 7.23029 1.96269 7.10788 1.56661 6.88765L1.56633 6.92377C1.56633 8.30553 2.54959 9.45812 3.85458 9.72059C3.43439 9.83434 2.99381 9.85094 2.56624 9.76913C2.92946 10.9023 3.98271 11.7272 5.2307 11.75C4.22039 12.5431 2.97265 12.9733 1.68825 12.9712C1.45824 12.9712 1.23105 12.9577 1.00781 12.9311C2.31198 13.7694 3.82996 14.2143 5.38027 14.2127C10.6271 14.2127 13.4958 9.8665 13.4958 6.09714C13.4958 5.97353 13.4933 5.8502 13.4879 5.72772C14.0465 5.32448 14.5284 4.82461 14.9109 4.2517Z" fill="black"/>
</svg>
