<svg width="16" height="16" viewBox="0 0 16 16" fill="none" xmlns="http://www.w3.org/2000/svg">
<path d="M15.534 4.86665C15.534 4.73331 15.334 3.66665 14.8673 3.19998C14.2673 2.53331 13.6007 2.46665 13.2673 2.46665H13.2007C11.134 2.33331 8.06732 2.33331 8.00065 2.33331C8.00065 2.33331 4.86732 2.33331 2.80065 2.46665H2.73398C2.40065 2.46665 1.73398 2.53331 1.13398 3.19998C0.667318 3.73331 0.467318 4.79998 0.467318 4.93331C0.467318 4.99998 0.333984 6.19998 0.333984 7.46665V8.59998C0.333984 9.86665 0.467318 11.0666 0.467318 11.1333C0.467318 11.2666 0.667318 12.3333 1.13398 12.8C1.66732 13.4 2.33398 13.4666 2.73398 13.5333H2.93398C4.13398 13.6666 7.80065 13.6666 7.93398 13.6666C7.93398 13.6666 11.0673 13.6666 13.134 13.5333H13.2007C13.534 13.4666 14.2007 13.4 14.8007 12.8C15.2673 12.2666 15.4673 11.2 15.4673 11.0666C15.4673 11 15.6007 9.79998 15.6007 8.53331V7.39998C15.6673 6.19998 15.534 4.93331 15.534 4.86665ZM10.6007 8.13331L6.60065 10.2666C6.53398 10.2666 6.53398 10.3333 6.46732 10.3333C6.40065 10.3333 6.33398 10.3333 6.33398 10.2666C6.26732 10.2 6.20065 10.1333 6.20065 9.99998V5.66665C6.20065 5.53331 6.26732 5.46665 6.33398 5.39998C6.40065 5.33331 6.53398 5.33331 6.66732 5.39998L10.6673 7.53331C10.8007 7.59998 10.8673 7.66665 10.8673 7.79998C10.8673 7.93331 10.734 8.06665 10.6007 8.13331Z" fill="black"/>
</svg>
